<svg version="1.1" xmlns="http://www.w3.org/2000/svg" viewBox="0 0 698 684" width="698" height="684">
  <!-- svg-source:excalidraw -->
  
  <defs>
    <style class="style-fonts">
      @font-face {
        font-family: "Virgil";
        src: url("https://excalidraw.com/Virgil.woff2");
      }
      @font-face {
        font-family: "Cascadia";
        src: url("https://excalidraw.com/Cascadia.woff2");
      }
      @font-face {
        font-family: "Assistant";
        src: url("https://excalidraw.com/Assistant-Regular.woff2");
      }
    </style>
    
  </defs>
  <g stroke-linecap="round" transform="translate(10 10) rotate(0 339 332)"><path d="M313.1 0.91 C334.83 -5.95, 360.54 0.43, 383.96 3.32 C407.37 6.22, 431.53 10.47, 453.59 18.29 C475.66 26.11, 496.49 37.96, 516.35 50.22 C536.21 62.48, 555.76 76.12, 572.76 91.86 C589.76 107.59, 605.07 125.76, 618.36 144.63 C631.65 163.5, 643.38 183.98, 652.5 205.08 C661.62 226.19, 668.94 248.58, 673.08 271.25 C677.22 293.92, 678.1 317.81, 677.36 341.11 C676.61 364.4, 674.03 388.5, 668.62 411.01 C663.21 433.51, 655.07 455.48, 644.92 476.13 C634.77 496.78, 622.11 516.68, 607.72 534.9 C593.32 553.13, 576.56 570.6, 558.55 585.47 C540.53 600.34, 520.3 613.42, 499.61 624.11 C478.92 634.8, 456.96 643.01, 434.4 649.61 C411.84 656.21, 387.49 661.74, 364.23 663.7 C340.98 665.67, 318.07 664.46, 294.86 661.4 C271.65 658.34, 247.32 653.23, 224.98 645.34 C202.64 637.46, 180.87 626.24, 160.82 614.09 C140.77 601.94, 121.57 588.18, 104.68 572.43 C87.79 556.68, 72.7 538.74, 59.49 519.6 C46.28 500.45, 34.25 478.96, 25.41 457.55 C16.56 436.14, 10.49 413.67, 6.41 391.13 C2.33 368.6, 0.24 345.12, 0.91 322.32 C1.58 299.53, 4.87 276.75, 10.42 254.36 C15.97 231.97, 24.28 208.79, 34.21 187.99 C44.15 167.19, 55.94 147.68, 70.05 129.58 C84.15 111.47, 100.94 94.35, 118.87 79.35 C136.8 64.35, 156.77 50.68, 177.62 39.58 C198.46 28.48, 218.36 19.19, 243.95 12.77 C269.54 6.35, 313.53 2.07, 331.16 1.06 C348.78 0.06, 349.51 1.51, 349.72 6.72 M183.43 36.46 C201.01 21.16, 227.69 16.46, 250.36 10.28 C273.02 4.1, 296.06 0.46, 319.43 -0.64 C342.79 -1.73, 367.13 -0.19, 390.54 3.69 C413.96 7.57, 437.73 14.42, 459.92 22.66 C482.1 30.9, 503.91 40.83, 523.64 53.14 C543.37 65.46, 561.98 80.26, 578.31 96.55 C594.64 112.84, 608.69 131.66, 621.62 150.89 C634.54 170.12, 647.21 190.87, 655.89 211.94 C664.57 233.01, 670.28 254.69, 673.69 277.31 C677.09 299.93, 677.21 324.58, 676.32 347.67 C675.42 370.75, 673.88 393.78, 668.32 415.83 C662.76 437.88, 653.74 459.48, 642.98 479.96 C632.21 500.45, 618.79 520.49, 603.73 538.75 C588.68 557.01, 570.97 574.91, 552.64 589.52 C534.3 604.12, 514.6 615.74, 493.73 626.4 C472.85 637.05, 449.72 647.05, 427.4 653.45 C405.07 659.85, 383 663.59, 359.77 664.78 C336.53 665.97, 311.52 664.34, 288.01 660.58 C264.51 656.82, 240.69 650.61, 218.72 642.23 C196.75 633.84, 176.01 622.56, 156.19 610.27 C136.38 597.97, 116.45 584.72, 99.81 568.45 C83.17 552.19, 69.26 531.93, 56.37 512.67 C43.47 493.42, 30.87 474.34, 22.43 452.94 C13.99 431.54, 9.21 407.33, 5.74 384.29 C2.26 361.25, 0.67 337.42, 1.59 314.71 C2.52 292, 5.47 270.18, 11.31 248.04 C17.15 225.9, 26.15 202.64, 36.65 181.87 C47.16 161.1, 59.53 141.15, 74.35 123.43 C89.17 105.71, 107.22 89.86, 125.59 75.52 C143.97 61.19, 174.16 42.86, 184.59 37.42 C195.02 31.98, 185.83 38.18, 188.17 42.88" stroke="none" stroke-width="0" fill="#a5d8ff"></path><path d="M316.56 0.1 C338.49 -6.91, 365.19 -0.25, 388.59 3.02 C411.99 6.3, 435.07 11.55, 456.96 19.77 C478.86 27.99, 500.13 39.76, 519.96 52.33 C539.79 64.89, 559.25 79.28, 575.95 95.15 C592.66 111.02, 607.25 128.39, 620.2 147.52 C633.14 166.66, 644.72 188.44, 653.62 209.95 C662.52 231.46, 669.76 253.97, 673.61 276.58 C677.47 299.19, 677.77 322.75, 676.77 345.62 C675.77 368.49, 673.2 391.61, 667.62 413.8 C662.04 436, 653.86 458.15, 643.3 478.79 C632.73 499.43, 618.99 519.57, 604.25 537.66 C589.51 555.75, 572.89 572.44, 554.86 587.31 C536.83 602.19, 516.88 616.08, 496.05 626.91 C475.21 637.74, 452.53 646.39, 429.88 652.29 C407.23 658.2, 383.3 660.82, 360.14 662.33 C336.97 663.83, 314.07 664.49, 290.89 661.31 C267.71 658.14, 243.04 651.45, 221.03 643.29 C199.03 635.13, 178.59 624.75, 158.85 612.35 C139.1 599.96, 119.55 584.99, 102.56 568.94 C85.56 552.89, 70.04 534.96, 56.89 516.06 C43.74 497.16, 32.41 476.85, 23.67 455.56 C14.92 434.27, 8.19 411.17, 4.4 388.31 C0.6 365.45, -0.03 341.57, 0.9 318.41 C1.84 295.25, 4.12 271.71, 9.98 249.35 C15.84 226.99, 25.4 204.8, 36.05 184.23 C46.71 163.66, 59.68 143.75, 73.91 125.92 C88.14 108.09, 103.36 92.03, 121.42 77.24 C139.49 62.44, 161.39 47.86, 182.3 37.17 C203.21 26.48, 221.93 19.22, 246.89 13.08 C271.86 6.93, 315.28 1.34, 332.11 0.31 C348.93 -0.72, 347.7 1.31, 347.84 6.89 M373.39 0.59 C396.15 -2.62, 419.49 7.72, 441.92 14.79 C464.35 21.86, 487.38 31.67, 507.97 43.03 C528.56 54.38, 548.26 67.69, 565.47 82.92 C582.67 98.14, 597.38 115.74, 611.19 134.4 C625 153.05, 638.69 173.88, 648.34 194.84 C657.99 215.81, 663.96 237.32, 669.08 260.19 C674.21 283.06, 678.77 308.6, 679.11 332.07 C679.44 355.53, 676.08 378.75, 671.11 400.99 C666.15 423.22, 658.69 444.44, 649.33 465.48 C639.96 486.53, 628.74 508.62, 614.93 527.28 C601.12 545.94, 584.08 562.23, 566.48 577.45 C548.88 592.66, 529.75 606.83, 509.35 618.55 C488.95 630.27, 466.34 640.69, 444.07 647.78 C421.79 654.86, 398.85 658.5, 375.7 661.06 C352.55 663.62, 328.52 665.38, 305.18 663.15 C281.84 660.91, 258.22 654.99, 235.66 647.65 C213.11 640.32, 190.24 630.57, 169.84 619.12 C149.45 607.68, 130.64 593.92, 113.3 579.01 C95.97 564.09, 79.58 547.94, 65.84 529.65 C52.09 511.35, 40.7 490.55, 30.84 469.24 C20.98 447.92, 11.97 424.15, 6.66 401.75 C1.36 379.35, -0.94 357.51, -0.98 334.85 C-1.02 312.2, 1.33 288.72, 6.43 265.82 C11.52 242.91, 20.18 218.59, 29.62 197.42 C39.06 176.26, 49.6 157.48, 63.08 138.83 C76.57 120.19, 93.13 101.3, 110.53 85.54 C127.92 69.77, 146.92 55.86, 167.44 44.23 C187.95 32.6, 211.23 22.79, 233.63 15.77 C256.03 8.76, 278.56 4.53, 301.83 2.13 C325.11 -0.28, 361.38 0.53, 373.28 1.35 C385.17 2.16, 373.72 1.42, 373.22 7.02" stroke="#f08c00" stroke-width="4" fill="none"></path></g><g transform="translate(188 51) rotate(0 122.9765625 251.8613737809062)"><text x="122.9765625" y="405.33939842864595" font-family="Cascadia, Segoe UI Emoji" font-size="419.7689563015104px" fill="#e03131" text-anchor="middle" style="white-space: pre;" direction="ltr" dominant-baseline="alphabetic">B</text></g><g transform="translate(409.453125 329) rotate(0 70.83907775362081 145.07976239073207)"><text x="70.83907775362077" y="233.48774259758483" font-family="Cascadia, Segoe UI Emoji" font-size="241.79960398455387px" fill="#e03131" text-anchor="middle" style="white-space: pre;" direction="ltr" dominant-baseline="alphabetic">1</text></g></svg>